<svg width="20" height="20" viewBox="0 0 20 20" fill="none" xmlns="http://www.w3.org/2000/svg">
<path d="M10 0C4.477 0 0 4.477 0 10C0 15.523 4.477 20 10 20C15.523 20 20 15.523 20 10C20 4.477 15.523 0 10 0ZM11.53 12.47C11.823 12.763 11.823 13.238 11.53 13.531C11.384 13.677 11.192 13.751 11 13.751C10.808 13.751 10.616 13.678 10.47 13.531L7.46997 10.531C7.17697 10.238 7.17697 9.76297 7.46997 9.46997L10.47 6.46997C10.763 6.17697 11.238 6.17697 11.531 6.46997C11.824 6.76297 11.824 7.23801 11.531 7.53101L9.06104 10.001L11.53 12.47Z" fill="#B70404"/>
</svg>
