<svg width="20" height="20" viewBox="0 0 20 20" fill="none" xmlns="http://www.w3.org/2000/svg">
<path d="M10 0C4.477 0 0 4.477 0 10C0 15.523 4.477 20 10 20C15.523 20 20 15.523 20 10C20 4.477 15.523 0 10 0ZM12.53 10.53L9.53003 13.53C9.38403 13.676 9.192 13.75 9 13.75C8.808 13.75 8.61597 13.677 8.46997 13.53C8.17697 13.237 8.17697 12.762 8.46997 12.469L10.9399 9.99902L8.46997 7.52905C8.17697 7.23605 8.17697 6.76102 8.46997 6.46802C8.76297 6.17502 9.23801 6.17502 9.53101 6.46802L12.531 9.46802C12.823 9.76302 12.823 10.237 12.53 10.53Z" fill="#B70404"/>
</svg>
