<svg width="20" height="20" viewBox="0 0 20 20" fill="none" xmlns="http://www.w3.org/2000/svg">
<path d="M18.75 9.99978C18.75 5.17478 14.825 1.24978 10 1.24978C5.17502 1.24978 1.25002 5.17478 1.25002 9.99978C1.25002 12.9048 2.67904 15.4769 4.86404 17.0689L3.46902 18.4707C3.17602 18.7647 3.17797 19.2398 3.47097 19.5318C3.61697 19.6778 3.80902 19.7498 4.00002 19.7498C4.19202 19.7498 4.38503 19.6758 4.53103 19.5288L6.18801 17.8638C7.34201 18.4258 8.63202 18.7498 10 18.7498C11.368 18.7498 12.657 18.4258 13.812 17.8638L15.469 19.5288C15.615 19.6758 15.808 19.7498 16 19.7498C16.191 19.7498 16.3831 19.6768 16.5291 19.5318C16.8221 19.2398 16.824 18.7647 16.531 18.4707L15.136 17.0689C17.321 15.4769 18.75 12.9048 18.75 9.99978ZM2.75002 9.99978C2.75002 6.00178 6.00202 2.74978 10 2.74978C13.998 2.74978 17.25 6.00178 17.25 9.99978C17.25 13.9978 13.998 17.2498 10 17.2498C6.00202 17.2498 2.75002 13.9978 2.75002 9.99978ZM19.5359 3.5248C19.3889 3.6748 19.194 3.74978 19 3.74978C18.811 3.74978 18.6211 3.67879 18.4751 3.53579L16.4751 1.57583C16.1801 1.28583 16.1751 0.810794 16.4641 0.514794C16.7561 0.218794 17.2299 0.213808 17.5259 0.503808L19.5259 2.46377C19.8199 2.75377 19.8249 3.2288 19.5359 3.5248ZM1.53005 3.52981C1.38405 3.67581 1.19202 3.74978 1.00002 3.74978C0.808023 3.74978 0.615994 3.67681 0.469994 3.52981C0.176994 3.23681 0.176994 2.76177 0.469994 2.46877L2.46999 0.468773C2.76299 0.175773 3.23803 0.175773 3.53103 0.468773C3.82403 0.761773 3.82403 1.23681 3.53103 1.52981L1.53005 3.52981Z" fill="#01579B"/>
</svg>
